<svg id="Layer_1" enable-background="new 0 0 509.858 509.858" height="512" viewBox="0 0 509.858 509.858" width="512" xmlns="http://www.w3.org/2000/svg"><g><g><path d="m506.716 258.07c0 41.378-9.981 80.425-27.667 114.864-41.751 81.3-126.44 117.531-224.12 117.531-139.058 0-240.141-95.445-240.141-234.503 0-124.97 79.398-226.567 198.776-246.297 13.458-2.224 27.276-3.381 41.364-3.381 139.059-.001 251.788 112.728 251.788 251.786z" fill="#2d56a1"/></g><path d="m465.557 360.309c-.161.097-.322.193-.483.29-7.419 4.444-16.47-2.465-14.178-10.804l32.646-118.802c.637-2.316-.725-4.71-3.042-5.347-1.988-.546-3.319-2.413-3.188-4.471l2.311-36.292c3.353-12.203-3.821-24.813-16.023-28.166l-144.737-39.772c-.054-.015-.109-.03-.163-.044-10.939-2.954-20.037-10.53-24.422-20.978l-22.589-53.825c-.929-2.214-3.478-3.256-5.692-2.327-1.9.798-4.1.151-5.267-1.547l-7.639-11.329c-8.714-12.924-24.144-19.752-39.523-17.21-43.109 7.128-82.517 25.21-115.285 51.282.003-.008.005-.016.008-.024-16.111 12.818-31.63 28.482-44.949 46.246l.013.03c-31.424 41.915-50.098 93.937-50.213 150.328-.282 138.426 112.293 251.733 250.718 252.308 63.701.265 121.925-23.133 166.404-61.902l.008.002c1.415-1.233 4.123-3.675 4.841-4.335l.004-.015c21.887-20.092 40.212-44.003 53.914-70.68 4.4-8.567-5.224-17.583-13.474-12.616zm-280.687-36.78 27.79-11.663 4.558 10.861 6.929-2.908c-7.756 30.178-10.879 34.732-10.292 44.919-11.264-6.253-21.997-13.344-32.115-21.189-7.085-5.493-5.4-16.507 2.89-19.92.08-.033.16-.066.24-.1z" fill="#1a396b"/><g><path d="m242.315 210.507h189.012v230.321h-189.012z" fill="#20b7a1" transform="matrix(.964 .265 -.265 .964 98.33 -77.606)"/><path d="m215.179 411.671c-20.01-5.499-31.774-26.177-26.275-46.187l57.54-209.398c5.499-20.01 26.177-31.774 46.187-26.275z" fill="#2896ff"/><path d="m395.401 444.341-177.835-49.157c-12.104-3.326-19.22-15.834-15.894-27.938 3.326-12.104 15.834-19.22 27.938-15.894l1.992.548 221.788-154.15-2.922 45.888-43.024 156.872z" fill="#fff"/><path d="m296.417 153.66h138.291v205.505h-138.291z" fill="#82cd64" transform="matrix(.964 .265 -.265 .964 81.007 -87.697)"/><g><path d="m407.679 364.104-98.87-27.168c-11.625-3.194-18.46-15.208-15.265-26.833l46-167.401-46.913-12.891-61.028 222.089 166.832 45.844z" fill="#20b7a1"/></g><path d="m398.436 397.743-3.035 46.598 55.068-200.704 2.923-45.888z" fill="#faf58c"/></g><g><path d="m106.727 78.545h188.96v230.258h-188.96z" fill="#e20a62" transform="matrix(.922 -.387 .387 .922 -59.271 92.95)"/><path d="m158.639 336.394c-19.13 8.028-41.145-.972-49.173-20.101l-84.012-200.186c-8.028-19.13.972-41.145 20.101-49.173z" fill="#ff8500"/><path d="m320.53 250.836-170.191 71.12c-11.571 4.856-24.889-.588-29.745-12.159-4.856-11.571.588-24.889 12.159-29.745l1.905-.799 79.255-258.13 26.028 37.889 63.003 149.92z" fill="#fff"/><path d="m116.562 17.815h133.492v205.727h-133.492z" fill="#ff5551" transform="matrix(.922 -.387 .387 .922 -32.418 80.337)"/><path d="m312.8 238.604-141.112 59.22c-2.079.873-4.473-.106-5.345-2.185-.873-2.079.106-4.473 2.185-5.345l141.112-59.22z" fill="#6ee1ff"/><path d="m179.948 280.759h32.759v50.461h-32.759z" fill="#2896ff" transform="matrix(.922 -.387 .387 .922 -103.113 99.812)"/><g fill="#e20a62"><path d="m280.656 180.16-94.52 39.667c-11.114 4.664-23.904-.564-28.568-11.678l-27.575-65.708c-.69-1.643-.055-3.543 1.483-4.442l.095-.056c1.2-.701 1.868-2.049 1.7-3.428l-.129-1.063c-.191-1.574.695-3.081 2.163-3.678l3.66-1.489c1.676-.682 3.602-.157 4.7 1.282l1.754 2.299c.62.789 1.611.784 2.675.35 1.831-.745 3.791-2.883 3.15-4.459-.052-.128-.165-.281-.276-.434l-18.537-22.74c-1.075-1.301-3.288-1.245-5.247-.448-1.958.797-3.58 2.302-3.442 3.984.398 4.382-5.68 5.894-7.383 1.837l-25.954-61.844-44.849 18.822 89.103 212.319 159.493-66.934zm-143.316-57.173-4.264 1.735c-.492.2-1.04-.122-1.104-.65l-1.053-8.696c-.099-.815.942-1.239 1.44-.586l5.318 6.961c.322.423.155 1.036-.337 1.236z"/><path d="m154.021 127.469c.433 1.065 1.922 1.55 3.712.822l9.454-3.847c4.814-1.959 7.575-5.912 4.836-12.642l-.364-.895c-1.733-4.259-4.164-5.107-7.16-5.029 1.857-1.898 2.302-4.708.898-8.159-2.461-6.048-7.344-5.848-11.603-4.115l-8.731 3.553c-1.449.59-2.62 1.861-2.065 3.224zm10.855-14.197.277.681c1.109 2.726.316 4.437-1.813 5.304l-4.259 1.733-3.466-8.518 4.259-1.733c2.129-.866 3.823-.363 5.002 2.533zm-9.278-13.651c1.618-.658 3.034.503 3.641 1.995.589 1.448.385 3.267-1.232 3.925l-4.472 1.82-2.409-5.92z"/><path d="m174.884 109.894c2.981 7.325 8.732 8.162 14.312 5.891 6.09-2.478 9.374-7.586 7.068-13.251-1.04-2.556-2.348-2.719-4.647-1.783-1.705.694-2.979 1.709-2.466 3.338.549 1.713 1.393 4.397-2.014 5.784-2.471 1.006-4.43.214-5.609-2.682l-4.593-11.287c-1.179-2.898-.329-4.832 2.098-5.82 3.621-1.473 4.858 1.2 5.351 2.291.709 1.498 2.349 1.377 4.137.649 2.258-.919 3.08-1.947 2.04-4.503-2.202-5.41-8.05-6.604-14.14-4.126-5.58 2.271-9.113 6.885-6.131 14.212z"/></g><g fill="#f8e000"><path d="m123.504 130.25c-.052-.128-.078-.316-.106-.503l-2.65-29.205c-.139-1.682 1.484-3.187 3.442-3.984 1.959-.797 4.172-.853 5.247.448l18.537 22.74c.111.153.223.305.275.434.641 1.576-1.318 3.714-3.15 4.459-1.065.433-2.055.438-2.675-.35l-3.615-4.736-8.987 3.657.719 5.914c.109.997-.604 1.685-1.67 2.119-1.831.745-4.726.583-5.367-.993zm11.82-15.236-7.754-10.15 1.536 12.68z"/><path d="m140.004 92.805c-.555-1.363.616-2.634 2.066-3.224l8.731-3.553c4.259-1.733 9.141-1.933 11.603 4.115 1.404 3.451.959 6.261-.898 8.159 2.996-.077 5.427.771 7.16 5.029l.364.895c2.739 6.73-.022 10.683-4.836 12.642l-9.454 3.847c-1.79.728-3.279.243-3.712-.822zm10.537 6.98 4.472-1.82c1.618-.658 1.821-2.477 1.232-3.925-.607-1.491-2.023-2.653-3.641-1.995l-4.472 1.82zm9.806 11.896c2.129-.867 2.923-2.578 1.813-5.304l-.277-.681c-1.178-2.896-2.873-3.399-5.002-2.532l-4.259 1.733 3.466 8.518z"/><path d="m176.042 82.508c-2.428.988-3.278 2.922-2.098 5.82l4.593 11.287c1.178 2.896 3.138 3.687 5.609 2.682 3.407-1.387 2.564-4.071 2.014-5.784-.513-1.628.761-2.644 2.466-3.338 2.299-.936 3.607-.772 4.647 1.784 2.305 5.665-.978 10.773-7.068 13.251-5.58 2.271-11.331 1.434-14.312-5.891l-4.593-11.287c-2.981-7.326.551-11.941 6.131-14.212 6.09-2.478 11.938-1.285 14.139 4.126 1.04 2.556.217 3.584-2.04 4.503-1.788.728-3.428.849-4.137-.649-.493-1.092-1.731-3.766-5.351-2.292z"/></g><path d="m294.152 212.319 26.378 38.517-80.588-191.824-26.029-37.889z" fill="#6ee1ff"/></g></g></svg>